#!OML:ASF X:\für Bonn\!DataBase\2005_08_11_Bastian_Final\c3d\Bastian.ASF
:FULLY-SPECIFIED
:DEGREES
588
root 0.500174 2.32653 -1.84588 118.482 3.51306 -176.548
lowerback 53.6742 1.29431 5.23217
upperback 9.90778 12.6188 -5.74151
thorax -7.77976 9.89765 -14.6072
lowerneck -7.95051 -2.10705 -1.31731
upperneck 0.490381 -2.7916 1.094
head 1.53197 -1.4063 0.460938
rclavicle 5.36719e-015 -1.27222e-014
rhumerus 30.8385 1.62579 27.1599
rradius 21.254
rwrist -289.938
rhand 42.1549 -0.967289
rfingers 7.12502
rthumb 64.1556 -9.49016
lclavicle 5.36719e-015 -1.27222e-014
lhumerus 9.90236 -32.1152 64.5457
lradius 90.7466
lwrist 227.207
lhand -32.9338 10.7683
lfingers 7.12502
lthumb -6.15035 40.659
rfemur -86.0851 -37.9792 30.7689
rtibia 103.502
rfoot 12.9557 3.66174
rtoes 7.74192
lfemur -56.175 -8.53205 -14.9759
ltibia 57.8289
lfoot 20.4378 -2.83621
ltoes -25.1345
589
root 0.536707 2.32125 -1.83988 118.316 2.9948 -176.492
lowerback 54.0024 1.33533 4.93977
upperback 9.97216 12.7472 -5.84771
thorax -7.73189 10.0653 -14.6591
lowerneck -7.69127 -1.96863 -1.5281
upperneck 0.177329 -2.60241 1.45261
head 1.39283 -1.30722 0.619411
rclavicle 1.54555e-014 -9.54166e-014
rhumerus 31.6092 1.01177 27.0619
rradius 22.4337
rwrist -282.215
rhand 35.7917 3.62973
rfingers 7.12502
rthumb 58.8247 -11.3279
lclavicle 1.54555e-014 -9.54166e-014
lhumerus 7.15402 -31.3157 66.1355
lradius 92.4497
lwrist 227.208
lhand -32.7062 10.3512
lfingers 7.12502
lthumb -5.93061 40.2482
rfemur -85.8452 -37.8992 30.242
rtibia 103.605
rfoot 13.2172 3.73813
rtoes 7.86655
lfemur -55.8632 -8.66824 -15.3273
ltibia 57.5523
lfoot 20.3028 -2.58892
ltoes -25.7306
590
root 0.574658 2.31733 -1.8323 118.15 2.5107 -176.409
lowerback 54.3188 1.38176 4.61916
upperback 10.0403 12.8528 -5.90221
thorax -7.69452 10.2114 -14.6301
lowerneck -7.3417 -1.83988 -1.91803
upperneck -0.219172 -2.41642 2.01421
head 1.21814 -1.20793 0.871754
rclavicle -2.90226e-014 3.18055e-014
rhumerus 33.0358 -6.4851 20.3255
rradius 24.0124
rwrist -262.592
rhand 29.2304 10.1413
rfingers 7.12502
rthumb 53.0137 -9.3424
lclavicle -2.90226e-014 3.18055e-014
lhumerus 4.34765 -30.4254 67.6442
lradius 94.0787
lwrist 227.509
lhand -32.3915 9.90269
lfingers 7.12502
lthumb -5.6267 39.808
rfemur -85.5128 -37.7314 29.6733
rtibia 103.692
rfoot 13.4614 3.72761
rtoes 8.15741
lfemur -55.5487 -8.72527 -15.6821
ltibia 57.2775
lfoot 20.1866 -2.44501
ltoes -26.4747
591
root 0.613137 2.31483 -1.82572 117.958 2.04499 -176.293
lowerback 55.4452 8.19183 13.9868
upperback 11.4971 9.78512 -4.0343
thorax -5.45976 1.91944 -14.3202
lowerneck -6.90188 -1.7329 -2.45282
upperneck -0.707193 -2.2545 2.82762
head 1.00668 -1.11978 1.22844
rclavicle -6.77856e-014 -6.36111e-015
rhumerus 35.7693 -15.8405 9.94545
rradius 26.2901
rwrist -240.184
rhand 20.6877 12.3861
rfingers 7.12502
rthumb 45.1752 -11.0441
lclavicle -6.77856e-014 -6.36111e-015
lhumerus 1.56967 -29.5776 69.0138
lradius 95.651
lwrist 228.058
lhand -31.9897 9.61738
lfingers 7.12502
lthumb -5.23874 39.5326
rfemur -85.1214 -37.5424 29.1128
rtibia 103.78
rfoot 13.6582 3.71726
rtoes 8.03968
lfemur -55.2009 -8.73991 -16.0518
ltibia 57.0165
lfoot 20.0907 -2.45265
ltoes -27.5533
592
root 0.651543 2.31331 -1.82074 117.789 1.59602 -176.187
lowerback 55.7099 8.33715 13.887
upperback 11.6622 9.82718 -3.96727
thorax -5.31604 1.91116 -14.1999
lowerneck -6.49043 -1.66244 -3.00407
upperneck -1.24399 -2.14035 3.63807
head 0.786201 -1.05957 1.58867
rclavicle -7.15625e-015 3.18055e-014
rhumerus 42.3769 -27.2636 -7.68725
rradius 29.5874
rwrist -212.798
rhand 11.4315 14.495
rfingers 7.12502
rthumb 36.4828 -11.7014
lclavicle -7.15625e-015 3.18055e-014
lhumerus -1.07781 -28.6462 70.3807
lradius 97.006
lwrist 228.677
lhand -31.6115 9.47858
lfingers 7.12502
lthumb -4.87365 39.4025
rfemur -84.7588 -37.2938 28.5905
rtibia 103.88
rfoot 13.8015 3.7027
rtoes 7.75469
lfemur -54.8881 -8.70109 -16.4238
ltibia 56.7758
lfoot 20.0106 -2.47947
ltoes -28.3791
593
root 0.689145 2.31277 -1.81699 117.651 1.16927 -176.085
lowerback 55.8982 8.48672 13.7425
upperback 11.8345 9.84811 -3.89963
thorax -5.16956 1.89494 -14.0526
lowerneck -6.0545 -1.6036 -3.37622
upperneck -1.81671 -2.05142 4.24683
head 0.544037 -1.01832 1.85575
rclavicle 2.04748e-014 1.24042e-013
rhumerus 49.6236 -33.1193 -23.9547
rradius 33.7744
rwrist -192.542
rhand 3.65494 13.704
rfingers 7.12502
rthumb 29.0862 -14.0449
lclavicle 2.04748e-014 1.24042e-013
lhumerus -3.8151 -27.6534 71.722
lradius 98.2269
lwrist 229.408
lhand -31.2827 9.70288
lfingers 7.12502
lthumb -4.55609 39.6339
rfemur -84.4083 -36.9609 28.0918
rtibia 103.979
rfoot 13.9118 3.66907
rtoes 7.34578
lfemur -54.6264 -8.62721 -16.7828
ltibia 56.5631
lfoot 19.9335 -2.49894
ltoes -29.0171
594
root 0.725514 2.31301 -1.81441 117.498 0.769705 -175.991
lowerback 56.0848 8.66804 13.5185
upperback 11.9784 9.87722 -3.79722
thorax -5.07146 1.87411 -13.8359
lowerneck -5.6066 -1.54942 -3.45567
upperneck -2.35478 -1.9829 4.49966
head 0.301174 -0.992812 1.95674
rclavicle 3.33958e-014 1.27222e-014
rhumerus 55.7323 -35.0612 -36.7031
rradius 36.7635
rwrist -179.251
rhand -2.11874 11.1759
rfingers 7.12502
rthumb 23.5595 -17.4011
lclavicle 3.33958e-014 1.27222e-014
lhumerus -6.60167 -26.7098 72.9616
lradius 99.3088
lwrist 230.241
lhand -30.9251 10.315
lfingers 7.12502
lthumb -4.21086 40.2531
rfemur -83.9771 -36.5172 27.5277
rtibia 104.069
rfoot 14.0308 3.58958
rtoes 7.37627
lfemur -54.352 -8.51579 -17.1355
ltibia 56.3753
lfoot 19.8977 -2.5801
ltoes -29.5015
